<svg xmlns="http://www.w3.org/2000/svg" version="1.1" xmlns:xlink="http://www.w3.org/1999/xlink" xmlns:svgjs="http://svgjs.dev/svgjs" width="1000" height="1000" viewBox="0 0 1000 1000"><rect width="1000" height="1000" fill="#ffffff"></rect><g transform="matrix(0.7,0,0,0.7,149.57575757575756,282.1265587044535)"><svg viewBox="0 0 396 247" data-background-color="#ffffff" preserveAspectRatio="xMidYMid meet" height="623" width="1000" xmlns="http://www.w3.org/2000/svg" xmlns:xlink="http://www.w3.org/1999/xlink"><g id="tight-bounds" transform="matrix(1,0,0,1,0.2400000000000091,-0.09999999999999432)"><svg viewBox="0 0 395.52 247.2" height="247.2" width="395.52"><g><svg></svg></g><g><svg viewBox="0 0 395.52 247.2" height="247.2" width="395.52"><g transform="matrix(1,0,0,1,115.67483026036457,47.215199999999996)"><svg viewBox="0 0 164.17033947927084 152.7696" height="152.7696" width="164.17033947927084"><g><svg viewBox="0 0 164.17033947927084 152.7696" height="152.7696" width="164.17033947927084"><g><svg viewBox="0 0 228.7073246412256 212.82484164517342" height="152.7696" width="164.17033947927084"><g><svg viewBox="0 0 228.7073246412256 212.82484164517342" height="212.82484164517342" width="228.7073246412256"><g id="textblocktransform"><svg viewBox="0 0 228.7073246412256 212.82484164517342" height="212.82484164517342" width="228.7073246412256" id="textblock"><g><svg viewBox="0 0 228.7073246412256 151.825483872" height="151.825483872" width="228.7073246412256"><g transform="matrix(1,0,0,1,0,0)"><svg width="228.7073246412256" viewBox="5 -34.75 53.099998474121094 35.25" height="151.825483872" data-palette-color="#ba3b0a"><path d="M22.4-17.9Q24.85-16.4 26.25-14.2 27.65-12 27.65-9.25L27.65-9.25Q27.65-6.15 25.93-3.7 24.2-1.25 20.95-0.2L20.95-0.2Q18.8 0.5 15.1 0.5L15.1 0.5Q9.8 0.5 7.6 0.25L7.6 0.25 5-0.05 5-34.75 16-34.75Q18.3-34.75 20.1-34.1L20.1-34.1Q22.95-33.1 24.53-30.9 26.1-28.7 26.1-25.7L26.1-25.7Q26.1-23.4 25.18-21.65 24.25-19.9 22.3-18.95L22.3-18.95Q21.8-18.7 20.8-18.4L20.8-18.4Q22.05-18.1 22.4-17.9L22.4-17.9ZM16.7-31.95L8-31.95 8-19.5 15.95-19.5Q19.15-19.5 21.13-21.15 23.1-22.8 23.1-25.9L23.1-25.9Q23.1-28.65 21.43-30.18 19.75-31.7 16.7-31.95L16.7-31.95ZM15.6-2.25Q19.85-2.25 22.25-4.05 24.65-5.85 24.65-9.25L24.65-9.25Q24.65-12.55 22.45-14.65 20.25-16.75 16.3-16.75L16.3-16.75 8-16.75 8-2.5 12.25-2.35 15.6-2.25ZM52.85-17.9Q55.3-16.4 56.7-14.2 58.1-12 58.1-9.25L58.1-9.25Q58.1-6.15 56.37-3.7 54.65-1.25 51.4-0.2L51.4-0.2Q49.25 0.5 45.55 0.5L45.55 0.5Q40.25 0.5 38.05 0.25L38.05 0.25 35.45-0.05 35.45-34.75 46.45-34.75Q48.75-34.75 50.55-34.1L50.55-34.1Q53.4-33.1 54.97-30.9 56.55-28.7 56.55-25.7L56.55-25.7Q56.55-23.4 55.62-21.65 54.7-19.9 52.75-18.95L52.75-18.95Q52.25-18.7 51.25-18.4L51.25-18.4Q52.5-18.1 52.85-17.9L52.85-17.9ZM47.15-31.95L38.45-31.95 38.45-19.5 46.4-19.5Q49.6-19.5 51.57-21.15 53.55-22.8 53.55-25.9L53.55-25.9Q53.55-28.65 51.87-30.18 50.2-31.7 47.15-31.95L47.15-31.95ZM46.05-2.25Q50.3-2.25 52.7-4.05 55.1-5.85 55.1-9.25L55.1-9.25Q55.1-12.55 52.9-14.65 50.7-16.75 46.75-16.75L46.75-16.75 38.45-16.75 38.45-2.5 42.7-2.35 46.05-2.25Z" opacity="1" transform="matrix(1,0,0,1,0,0)" fill="#ba3b0a" class="undefined-text-0" data-fill-palette-color="primary" id="text-0"></path></svg></g></svg></g><g transform="matrix(1,0,0,1,0,187.66783680256628)"><svg viewBox="0 0 228.7073246412256 25.157004842607144" height="25.157004842607144" width="228.7073246412256"><g transform="matrix(1,0,0,1,0,0)"><svg width="228.7073246412256" viewBox="4.5 -36.08043670654297 421.6099853515625 46.38478469848633" height="25.157004842607144" data-palette-color="#ba3b0a"><path d="M4.85-2.4L4.85-2.4Q4.85-4.35 4.93-11.4 5-18.45 4.93-22.98 4.85-27.5 4.5-32.2L4.5-32.2Q4.5-32.5 4.55-32.8L4.55-32.8Q4.5-33 4.5-33.15L4.5-33.15Q4.5-34.2 5.2-34.95 5.9-35.7 6.95-35.7L6.95-35.7Q20.85-35.95 27.3-35.7L27.3-35.7Q28.35-35.65 29.05-34.9 29.75-34.15 29.7-33.1 29.65-32.05 28.9-31.35 28.15-30.65 27.1-30.7L27.1-30.7Q20.8-30.95 9.6-30.75L9.6-30.75Q9.9-26.05 9.95-20.4L9.95-20.4Q13.25-20.4 24.8-20.55L24.8-20.55Q25.85-20.55 26.6-19.83 27.35-19.1 27.35-18.07 27.35-17.05 26.63-16.3 25.9-15.55 24.9-15.55L24.9-15.55Q13.3-15.4 9.95-15.4L9.95-15.4Q9.95-13.75 9.9-9.28 9.85-4.8 9.85-2.4L9.85-2.4Q9.85-1.35 9.13-0.63 8.4 0.1 7.35 0.1 6.3 0.1 5.58-0.63 4.85-1.35 4.85-2.4L4.85-2.4ZM35.7 0L35.7 0Q34.7 0 33.95-0.68 33.2-1.35 33.2-2.5L33.2-2.5 33.1-12.7Q33.05-16.15 33.05-21.3L33.05-21.3 33.05-24.25Q33.05-25.4 33.75-26.05 34.45-26.7 35.45-26.7L35.45-26.7Q36.5-26.7 37.27-26.03 38.05-25.35 38.05-24.15L38.05-24.15 38.05-22.65Q38.6-23.85 40.1-24.7L40.1-24.7Q42.15-25.95 44.6-25.95L44.6-25.95Q46.45-25.95 47.45-25.35 48.45-24.75 48.45-23.2L48.45-23.2Q48.45-22.2 47.85-21.53 47.25-20.85 46.1-20.85L46.1-20.85Q41.9-20.85 40.3-19.7L40.3-19.7Q39.4-19.1 38.72-18.25 38.05-17.4 38.05-16.6L38.05-16.6 38.15-10.35 38.2-2.5Q38.2-1.35 37.45-0.68 36.7 0 35.7 0L35.7 0ZM63.7-0.35L63.7-0.35Q57.09 1.25 53.14-3L53.14-3Q49.99-6.25 49.24-11.35L49.24-11.35Q48.7-15.35 50.2-18.95L50.2-18.95Q51.99-23.55 55.89-25.75L55.89-25.75Q56.7-26.2 57.89-26.4L57.89-26.4Q57.95-26.4 58.59-26.45L58.59-26.45Q58.84-26.5 58.99-26.55L58.99-26.55Q59.74-26.7 60.49-26.4L60.49-26.4Q60.7-26.4 61.45-26.38 62.2-26.35 62.45-26.33 62.7-26.3 63.32-26.23 63.95-26.15 64.34-26.05L64.34-26.05 65.3-25.7Q65.89-25.5 66.44-25.2 67-24.9 67.64-24.5L67.64-24.5Q70.89-22.3 72.14-18.32 73.39-14.35 72.8-11.9L72.8-11.9Q72.34-9.2 71.19-6.88 70.05-4.55 68.02-2.75 66-0.95 63.7-0.35L63.7-0.35ZM62.14-5.55L62.14-5.55Q64.3-5.85 65.82-7.78 67.34-9.7 67.82-11.85 68.3-14 67.47-16.57 66.64-19.15 64.84-20.3L64.84-20.3Q64.3-20.7 63.95-20.88 63.59-21.05 63.12-21.18 62.64-21.3 62.37-21.3 62.09-21.3 61.2-21.35 60.3-21.4 59.59-21.45L59.59-21.45Q59.45-21.45 59.24-21.5L59.24-21.5Q58.7-21.45 58.64-21.45L58.64-21.45 58.3-21.35Q56.09-20.15 54.92-17.53 53.74-14.9 54.24-12.1L54.24-12.1Q54.8-8.7 56.7-6.95L56.7-6.95Q58.74-5.05 62.14-5.55L62.14-5.55ZM81.14 0L81.14 0Q80.14 0 79.39-0.68 78.64-1.35 78.64-2.5L78.64-2.5Q78.64-6.45 78.59-9.3L78.59-9.3Q78.49-17.8 78.49-24.05L78.49-24.05Q78.49-25.2 79.19-25.85 79.89-26.5 80.89-26.5L80.89-26.5Q81.94-26.5 82.72-25.83 83.49-25.15 83.49-23.95L83.49-23.95 83.49-22.4Q86.59-26.45 91.64-26.45L91.64-26.45Q95.99-26.45 98.32-23.4 100.64-20.35 100.64-15.2L100.64-15.2Q100.64-9.5 100.49-7.7L100.49-7.7 100.24-4.35 100.09-2.2Q99.99-1.2 99.29-0.6 98.59 0 97.64 0L97.64 0Q96.64 0 95.89-0.68 95.14-1.35 95.14-2.5L95.14-2.5Q95.14-3.3 95.49-8.05L95.49-8.05Q95.74-11.3 95.74-13.15L95.74-13.15Q95.74-17.4 94.54-19.43 93.34-21.45 90.84-21.45L90.84-21.45Q89.04-21.45 87.12-20.35 85.19-19.25 83.49-17.55L83.49-17.55 83.59-10.45 83.64-2.5Q83.64-1.35 82.89-0.68 82.14 0 81.14 0L81.14 0ZM114.99-0.15L114.99-0.15Q114.69-0.25 113.77-0.45 112.84-0.65 112.17-0.9 111.49-1.15 110.62-1.63 109.74-2.1 109.04-2.93 108.34-3.75 107.84-4.9L107.84-4.9Q107.29-6.25 107.14-10.2L107.14-10.2Q106.99-13.25 107.09-18.05L107.09-18.05Q107.09-18.95 107.14-21.05L107.14-21.05 106.74-21Q105.69-20.9 104.89-21.55 104.09-22.2 103.97-23.23 103.84-24.25 104.49-25.05 105.14-25.85 106.14-26L106.14-26 107.29-26.1Q107.34-28.75 107.44-31.45L107.44-31.45Q107.49-32.5 108.24-33.2 108.99-33.9 110.04-33.85 111.09-33.8 111.79-33.05 112.49-32.3 112.44-31.25L112.44-31.25 112.29-26.5 113.94-26.6Q114.99-26.65 115.77-26 116.54-25.35 116.62-24.3 116.69-23.25 116.04-22.48 115.39-21.7 114.34-21.6L114.34-21.6 112.14-21.5Q112.09-19.1 112.09-18L112.09-18Q111.99-13.3 112.14-10.35L112.14-10.35Q112.24-7.35 112.44-6.9 112.64-6.45 112.74-6.28 112.84-6.1 113.12-5.93 113.39-5.75 113.69-5.7 113.99-5.65 114.82-5.43 115.64-5.2 116.59-4.85L116.59-4.85Q117.54-4.55 118.02-3.63 118.49-2.7 118.17-1.73 117.84-0.75 116.92-0.28 115.99 0.2 114.99-0.15L114.99-0.15ZM133.89 0.25L133.89 0.25Q130.19 0 127.44-1.25 124.69-2.5 123.24-4.4 121.79-6.3 121.14-7.9 120.49-9.5 120.34-11.08 120.19-12.65 120.49-15.15L120.49-15.15Q120.84-17.25 121.96-19.3 123.09-21.35 124.96-22.98 126.84-24.6 129.49-25.48 132.14-26.35 135.14-26L135.14-26Q138.04-25.65 140.09-24.43 142.14-23.2 143.59-21.3L143.59-21.3Q144.84-19.7 145.11-18.9 145.39-18.1 145.61-17.4 145.84-16.7 145.99-16.2 146.14-15.7 146.26-15.18 146.39-14.65 146.44-13.95L146.44-13.95Q146.49-13 146.09-12.2 145.69-11.4 144.89-10.95L144.89-10.95Q144.24-10.7 143.49-10.7L143.49-10.7 134.94-10.55Q125.94-10.5 125.94-10.35L125.94-10.35 125.79-10.35Q126.44-7.8 128.51-6.35 130.59-4.9 134.19-4.65L134.19-4.65Q136.14-4.55 137.44-4.85L137.44-4.85Q138.89-5.25 139.54-5.58 140.19-5.9 141.14-6.45L141.14-6.45Q142.09-6.8 143.04-6.35 143.99-5.9 144.34-4.95 144.69-4 144.26-3.1 143.84-2.2 142.94-1.7L142.94-1.7Q142.14-1.25 141.29-0.93 140.44-0.6 138.79-0.15 137.14 0.3 133.89 0.25L133.89 0.25ZM125.89-15.25L125.89-15.25Q128.79-15.4 140.94-15.55L140.94-15.55Q140.49-17.05 139.49-18.4L139.49-18.4Q137.49-20.7 134.54-21.05L134.54-21.05Q131.44-21.45 129.09-19.73 126.74-18 125.89-15.25L125.89-15.25ZM153.84 0L153.84 0Q152.84 0 152.09-0.68 151.34-1.35 151.34-2.5L151.34-2.5Q151.34-6.45 151.29-9.3L151.29-9.3Q151.19-17.8 151.19-24.05L151.19-24.05Q151.19-25.2 151.89-25.85 152.59-26.5 153.59-26.5L153.59-26.5Q154.64-26.5 155.41-25.83 156.19-25.15 156.19-23.95L156.19-23.95 156.19-22.4Q159.29-26.45 164.34-26.45L164.34-26.45Q168.69-26.45 171.01-23.4 173.34-20.35 173.34-15.2L173.34-15.2Q173.34-9.5 173.19-7.7L173.19-7.7 172.94-4.35 172.79-2.2Q172.69-1.2 171.99-0.6 171.29 0 170.34 0L170.34 0Q169.34 0 168.59-0.68 167.84-1.35 167.84-2.5L167.84-2.5Q167.84-3.3 168.19-8.05L168.19-8.05Q168.44-11.3 168.44-13.15L168.44-13.15Q168.44-17.4 167.24-19.43 166.04-21.45 163.54-21.45L163.54-21.45Q161.74-21.45 159.81-20.35 157.89-19.25 156.19-17.55L156.19-17.55 156.29-10.45 156.34-2.5Q156.34-1.35 155.59-0.68 154.84 0 153.84 0L153.84 0ZM199.03 0L199.03 0Q198.23 0 197.58-0.45 196.93-0.9 196.68-2.15L196.68-2.15Q194.53-0.6 192.18-0.15L192.18-0.15Q188.93 0.45 186.23-0.5 183.53-1.45 181.68-3.65L181.68-3.65Q178.33-7.55 178.38-13.55L178.38-13.55Q178.43-18.95 181.88-22.85L181.88-22.85Q186.03-27.5 192.78-26.3L192.78-26.3Q195.08-25.9 196.28-25.25L196.28-25.25 196.18-33.25Q196.18-34.3 196.91-35.05 197.63-35.8 198.66-35.8 199.68-35.8 200.43-35.08 201.18-34.35 201.18-33.35L201.18-33.35Q201.53-10.55 201.53-2.5L201.53-2.5Q201.53-1.45 200.81-0.73 200.08 0 199.03 0L199.03 0ZM191.28-5.05L191.28-5.05Q192.23-5.25 193.28-5.75 194.33-6.25 194.76-6.58 195.18-6.9 195.41-7.15 195.63-7.4 195.93-7.73 196.23-8.05 196.48-8.75L196.48-8.75Q196.48-15.1 196.38-18.85L196.38-18.85Q196.33-18.85 196.28-18.9L196.28-18.9Q194.18-20.7 194.18-20.75L194.18-20.75Q193.63-21.1 191.88-21.4L191.88-21.4Q187.88-22.1 185.63-19.5L185.63-19.5Q183.38-17.05 183.38-13.55L183.38-13.55Q183.33-9.4 185.48-6.88 187.63-4.35 191.28-5.05L191.28-5.05ZM246.78-0.2L246.78-0.2Q240.03-0.1 225.53-0.35L225.53-0.35Q224.53-0.35 223.8-1.1 223.08-1.85 223.08-2.85L223.08-2.85Q222.78-3.45 222.78-4.1L222.78-4.1Q222.88-7.5 222.88-13.9 222.88-20.3 222.93-22.6L222.93-22.6Q222.93-23.45 222.88-25.58 222.83-27.7 222.88-29.53 222.93-31.35 223.18-32.95L223.18-32.95Q223.28-33.65 223.78-34.2 224.28-34.75 224.98-34.95L224.98-34.95Q225.63-35.55 226.58-35.6L226.58-35.6Q230.28-35.7 237.15-35.75 244.03-35.8 246.53-35.8L246.53-35.8Q247.58-35.8 248.3-35.08 249.03-34.35 249.03-33.3 249.03-32.25 248.3-31.53 247.58-30.8 246.53-30.8L246.53-30.8Q243.88-30.8 237.6-30.75 231.33-30.7 227.93-30.65L227.93-30.65Q227.78-29.95 227.85-26.83 227.93-23.7 227.93-22.5L227.93-22.5 227.93-20.45Q230.38-20.6 233.15-20.6 235.93-20.6 239.45-20.55 242.98-20.5 244.68-20.5L244.68-20.5Q245.73-20.5 246.45-19.78 247.18-19.05 247.18-18 247.18-16.95 246.45-16.23 245.73-15.5 244.68-15.5L244.68-15.5Q242.93-15.5 239.4-15.55 235.88-15.6 233.13-15.6 230.38-15.6 227.88-15.45L227.88-15.45Q227.88-8.35 227.83-5.3L227.83-5.3Q240.03-5.1 246.68-5.2L246.68-5.2Q247.73-5.2 248.48-4.5 249.23-3.8 249.23-2.75 249.23-1.7 248.53-0.95 247.83-0.2 246.78-0.2L246.78-0.2ZM257.13 0L257.13 0Q256.13 0 255.38-0.68 254.63-1.35 254.63-2.5L254.63-2.5Q254.63-6.45 254.58-9.3L254.58-9.3Q254.48-17.8 254.48-24.05L254.48-24.05Q254.48-25.2 255.18-25.85 255.88-26.5 256.88-26.5L256.88-26.5Q257.93-26.5 258.7-25.83 259.48-25.15 259.48-23.95L259.48-23.95 259.48-22.4Q262.58-26.45 267.63-26.45L267.63-26.45Q271.98-26.45 274.3-23.4 276.63-20.35 276.63-15.2L276.63-15.2Q276.63-9.5 276.48-7.7L276.48-7.7 276.23-4.35 276.08-2.2Q275.98-1.2 275.28-0.6 274.58 0 273.63 0L273.63 0Q272.63 0 271.88-0.68 271.13-1.35 271.13-2.5L271.13-2.5Q271.13-3.3 271.48-8.05L271.48-8.05Q271.73-11.3 271.73-13.15L271.73-13.15Q271.73-17.4 270.53-19.43 269.33-21.45 266.83-21.45L266.83-21.45Q265.03-21.45 263.1-20.35 261.18-19.25 259.48-17.55L259.48-17.55 259.58-10.45 259.63-2.5Q259.63-1.35 258.88-0.68 258.13 0 257.13 0L257.13 0ZM294.02 10.25L294.02 10.25Q291.12 10.5 288.45 9.6 285.77 8.7 284.02 6.45L284.02 6.45Q283.37 5.6 282.95 4.35 282.52 3.1 283.02 2.18 283.52 1.25 284.5 0.95 285.47 0.65 286.4 1.15 287.32 1.65 287.62 2.6L287.62 2.6Q287.72 3 287.87 3.68 288.02 4.35 288.97 5L288.97 5Q291.22 5.8 293.92 5.7L293.92 5.7Q296.37 5.6 297.67 4.67 298.97 3.75 299.32 2.55L299.32 2.55Q299.82 0.85 300.12-2.85L300.12-2.85Q298.22-0.85 294.37-0.45L294.37-0.45Q291.07-0.3 288.45-1.38 285.82-2.45 284.3-4.45 282.77-6.45 282.07-8.9L282.07-8.9Q281.37-11.25 281.57-14.8L281.57-14.8Q281.97-20.3 285.87-23.65L285.87-23.65Q290.22-27.1 296.37-26.1L296.37-26.1Q298.62-25.35 299.92-24.3L299.92-24.3Q299.97-26.3 301.82-26.75L301.82-26.75Q303.02-26.85 303.75-26.2 304.47-25.55 304.62-24.55L304.62-24.55Q305.17-18.45 305.27-9.65L305.27-9.65Q305.32-4.65 304.97-1.3L304.97-1.3Q304.57 3.7 302.62 6.18 300.67 8.65 298.72 9.33 296.77 10 294.02 10.25L294.02 10.25ZM294.02-5.55L294.02-5.55Q295.87-5.5 296.87-6L296.87-6Q299.77-6.9 300.22-10.75L300.22-10.75Q300.47-13.7 299.97-16.4L299.97-16.4Q299.62-18.1 297.92-19.35L297.92-19.35Q296.92-20.15 295.37-20.4L295.37-20.4Q291.37-21.1 289.22-19.2L289.22-19.2Q287.17-17.55 286.87-14.35L286.87-14.35Q286.62-10.15 288.52-7.8L288.52-7.8Q290.47-5.5 294.02-5.55L294.02-5.55ZM311.57-2.4L311.57-2.4Q311.47-6.15 311.6-13.9 311.72-21.65 311.72-24.05L311.72-24.05Q311.72-25.1 312.45-25.83 313.17-26.55 314.22-26.55 315.27-26.55 316-25.83 316.72-25.1 316.72-24.05L316.72-24.05Q316.72-21.65 316.6-13.95 316.47-6.25 316.57-2.5L316.57-2.5Q316.57-1.45 315.87-0.7 315.17 0.05 314.12 0.05 313.07 0.05 312.32-0.65 311.57-1.35 311.57-2.4L311.57-2.4ZM316.22-35.2L316.22-35.2Q317.07-34.35 317.07-33.1 317.07-31.85 316.22-31 315.37-30.15 314.12-30.15 312.87-30.15 312.02-31 311.17-31.85 311.17-33.1 311.17-34.35 312.02-35.2 312.87-36.05 314.15-36.08 315.42-36.1 316.22-35.2L316.22-35.2ZM325.87 0L325.87 0Q324.87 0 324.12-0.68 323.37-1.35 323.37-2.5L323.37-2.5Q323.37-6.45 323.32-9.3L323.32-9.3Q323.22-17.8 323.22-24.05L323.22-24.05Q323.22-25.2 323.92-25.85 324.62-26.5 325.62-26.5L325.62-26.5Q326.67-26.5 327.44-25.83 328.22-25.15 328.22-23.95L328.22-23.95 328.22-22.4Q331.32-26.45 336.37-26.45L336.37-26.45Q340.72-26.45 343.04-23.4 345.37-20.35 345.37-15.2L345.37-15.2Q345.37-9.5 345.22-7.7L345.22-7.7 344.97-4.35 344.82-2.2Q344.72-1.2 344.02-0.6 343.32 0 342.37 0L342.37 0Q341.37 0 340.62-0.68 339.87-1.35 339.87-2.5L339.87-2.5Q339.87-3.3 340.22-8.05L340.22-8.05Q340.47-11.3 340.47-13.15L340.47-13.15Q340.47-17.4 339.27-19.43 338.07-21.45 335.57-21.45L335.57-21.45Q333.77-21.45 331.84-20.35 329.92-19.25 328.22-17.55L328.22-17.55 328.32-10.45 328.37-2.5Q328.37-1.35 327.62-0.68 326.87 0 325.87 0L325.87 0ZM363.77 0.25L363.77 0.25Q360.07 0 357.32-1.25 354.57-2.5 353.12-4.4 351.67-6.3 351.02-7.9 350.37-9.5 350.22-11.08 350.07-12.65 350.37-15.15L350.37-15.15Q350.72-17.25 351.84-19.3 352.97-21.35 354.84-22.98 356.72-24.6 359.37-25.48 362.02-26.35 365.02-26L365.02-26Q367.92-25.65 369.97-24.43 372.02-23.2 373.47-21.3L373.47-21.3Q374.72-19.7 374.99-18.9 375.27-18.1 375.49-17.4 375.72-16.7 375.87-16.2 376.02-15.7 376.14-15.18 376.27-14.65 376.32-13.95L376.32-13.95Q376.37-13 375.97-12.2 375.57-11.4 374.77-10.95L374.77-10.95Q374.12-10.7 373.37-10.7L373.37-10.7 364.82-10.55Q355.82-10.5 355.82-10.35L355.82-10.35 355.67-10.35Q356.32-7.8 358.39-6.35 360.47-4.9 364.07-4.65L364.07-4.65Q366.02-4.55 367.32-4.85L367.32-4.85Q368.77-5.25 369.42-5.58 370.07-5.9 371.02-6.45L371.02-6.45Q371.97-6.8 372.92-6.35 373.87-5.9 374.22-4.95 374.57-4 374.14-3.1 373.72-2.2 372.82-1.7L372.82-1.7Q372.02-1.25 371.17-0.93 370.32-0.6 368.67-0.15 367.02 0.3 363.77 0.25L363.77 0.25ZM355.77-15.25L355.77-15.25Q358.67-15.4 370.82-15.55L370.82-15.55Q370.37-17.05 369.37-18.4L369.37-18.4Q367.37-20.7 364.42-21.05L364.42-21.05Q361.32-21.45 358.97-19.73 356.62-18 355.77-15.25L355.77-15.25ZM393.41 0.25L393.41 0.25Q389.71 0 386.96-1.25 384.21-2.5 382.76-4.4 381.31-6.3 380.66-7.9 380.01-9.5 379.86-11.08 379.71-12.65 380.01-15.15L380.01-15.15Q380.36-17.25 381.49-19.3 382.61-21.35 384.49-22.98 386.36-24.6 389.01-25.48 391.66-26.35 394.66-26L394.66-26Q397.56-25.65 399.61-24.43 401.66-23.2 403.11-21.3L403.11-21.3Q404.36-19.7 404.64-18.9 404.91-18.1 405.14-17.4 405.36-16.7 405.51-16.2 405.66-15.7 405.79-15.18 405.91-14.65 405.96-13.95L405.96-13.95Q406.01-13 405.61-12.2 405.21-11.4 404.41-10.95L404.41-10.95Q403.76-10.7 403.01-10.7L403.01-10.7 394.46-10.55Q385.46-10.5 385.46-10.35L385.46-10.35 385.31-10.35Q385.96-7.8 388.04-6.35 390.11-4.9 393.71-4.65L393.71-4.65Q395.66-4.55 396.96-4.85L396.96-4.85Q398.41-5.25 399.06-5.58 399.71-5.9 400.66-6.45L400.66-6.45Q401.61-6.8 402.56-6.35 403.51-5.9 403.86-4.95 404.21-4 403.79-3.1 403.36-2.2 402.46-1.7L402.46-1.7Q401.66-1.25 400.81-0.93 399.96-0.6 398.31-0.15 396.66 0.3 393.41 0.25L393.41 0.25ZM385.41-15.25L385.41-15.25Q388.31-15.4 400.46-15.55L400.46-15.55Q400.01-17.05 399.01-18.4L399.01-18.4Q397.01-20.7 394.06-21.05L394.06-21.05Q390.96-21.45 388.61-19.73 386.26-18 385.41-15.25L385.41-15.25ZM413.36 0L413.36 0Q412.36 0 411.61-0.68 410.86-1.35 410.86-2.5L410.86-2.5 410.76-12.7Q410.71-16.15 410.71-21.3L410.71-21.3 410.71-24.25Q410.71-25.4 411.41-26.05 412.11-26.7 413.11-26.7L413.11-26.7Q414.16-26.7 414.94-26.03 415.71-25.35 415.71-24.15L415.71-24.15 415.71-22.65Q416.26-23.85 417.76-24.7L417.76-24.7Q419.81-25.95 422.26-25.95L422.26-25.95Q424.11-25.95 425.11-25.35 426.11-24.75 426.11-23.2L426.11-23.2Q426.11-22.2 425.51-21.53 424.91-20.85 423.76-20.85L423.76-20.85Q419.56-20.85 417.96-19.7L417.96-19.7Q417.06-19.1 416.39-18.25 415.71-17.4 415.71-16.6L415.71-16.6 415.81-10.35 415.86-2.5Q415.86-1.35 415.11-0.68 414.36 0 413.36 0L413.36 0Z" opacity="1" transform="matrix(1,0,0,1,0,0)" fill="#ba3b0a" class="undefined-text-1" data-fill-palette-color="secondary" id="text-1"></path></svg></g></svg></g></svg></g></svg></g></svg></g></svg></g></svg></g><g><path d="M205.685 0c33.18 0 63.306 13.074 85.508 34.351l-7.269 0c-20.889-18.327-48.267-29.437-78.239-29.437-29.972 0-57.35 11.11-78.239 29.437l-7.269 0c22.202-21.277 52.328-34.351 85.508-34.351zM329.285 123.6c0 22.019-5.758 42.694-15.85 60.6v-10.769c7.019-15.152 10.936-32.034 10.936-49.831 0-17.797-3.917-34.679-10.936-49.831v-10.769c10.092 17.906 15.85 38.581 15.85 60.6zM205.685 247.2c-33.18 0-63.306-13.074-85.508-34.351h7.269c20.889 18.327 48.267 29.437 78.239 29.437 29.972 0 57.35-11.11 78.239-29.437h7.269c-22.202 21.277-52.328 34.351-85.508 34.351z" fill="#ba3b0a" stroke="transparent" data-fill-palette-color="tertiary"></path></g></svg></g><defs></defs></svg><rect width="395.52" height="247.2" fill="none" stroke="none" visibility="hidden"></rect></g></svg></g></svg>